/* XPM */
static char *result[] = {
/* columns rows colors chars-per-pixel */
"64 64 215 2 ",
"   c #0C0D0D",
".  c #2B0E0D",
"X  c #36110F",
"o  c #3D100D",
"O  c #251414",
"+  c #2D1B1A",
"@  c #3B1614",
"#  c #262525",
"$  c #2A2927",
"%  c #2D2D2B",
"&  c #272828",
"*  c #312E2D",
"=  c #382F2C",
"-  c #2D302F",
";  c #32302E",
":  c #2F2E30",
">  c #333333",
",  c #3B3534",
"<  c #3B3836",
"1  c #353A3B",
"2  c #3A3B3A",
"3  c #530A01",
"4  c #5F0E04",
"5  c #53130D",
"6  c #4A1813",
"7  c #531A14",
"8  c #4A120D",
"9  c #60150E",
"0  c #771608",
"q  c #741C14",
"w  c #59221C",
"e  c #4D2E29",
"r  c #492824",
"t  c #532B24",
"y  c #592C25",
"u  c #48302D",
"i  c #5C342F",
"p  c #54322E",
"a  c #423533",
"s  c #453936",
"d  c #473837",
"f  c #543432",
"g  c #533A36",
"h  c #5A3B35",
"j  c #5E3730",
"k  c #6A2623",
"l  c #6C2D27",
"z  c #692728",
"x  c #642B28",
"c  c #742C27",
"v  c #62322C",
"b  c #69312F",
"n  c #77362D",
"m  c #6B2F30",
"M  c #613A36",
"N  c #6A3C36",
"B  c #713832",
"V  c #44413E",
"C  c #48423E",
"Z  c #5D403D",
"A  c #55423E",
"S  c #3E4140",
"D  c #4A4643",
"F  c #4C4B4B",
"G  c #484745",
"H  c #554B48",
"J  c #54524D",
"K  c #4F5150",
"L  c #565957",
"P  c #5C5A5A",
"I  c #545754",
"U  c #664942",
"Y  c #694542",
"T  c #734C45",
"R  c #724E49",
"E  c #74534B",
"W  c #7C5047",
"Q  c #675B5A",
"!  c #765854",
"~  c #6F615D",
"^  c #646464",
"/  c #6A6C6B",
"(  c #6F7272",
")  c #777776",
"_  c #74726C",
"`  c #891B10",
"'  c #911B10",
"]  c #A61E0D",
"[  c #992617",
"{  c #A42A1E",
"}  c #832625",
"|  c #842B26",
" . c #9D2525",
".. c #893229",
"X. c #853429",
"o. c #9D3629",
"O. c #873B33",
"+. c #9C3A30",
"@. c #AA2E20",
"#. c #AA3326",
"$. c #B73628",
"%. c #D32211",
"&. c #DA2211",
"*. c #C2301D",
"=. c #C33827",
"-. c #D73A27",
";. c #C43F31",
":. c #E13522",
">. c #82453C",
",. c #8E453C",
"<. c #92463E",
"1. c #AF4625",
"2. c #AA4639",
"3. c #BB4C3A",
"4. c #CC402E",
"5. c #CA493B",
"6. c #D84B39",
"7. c #DE503F",
"8. c #9F4F43",
"9. c #965248",
"0. c #875D53",
"q. c #9B5C51",
"w. c #855348",
"e. c #A74E44",
"r. c #A7574C",
"t. c #AA5647",
"y. c #B85A4A",
"u. c #A15D52",
"i. c #8B6557",
"p. c #946157",
"a. c #9A655B",
"s. c #A76F4C",
"d. c #A2675C",
"f. c #A36A5D",
"g. c #AB6255",
"h. c #B36759",
"j. c #B47451",
"k. c #87766F",
"l. c #99726A",
"z. c #9B7B74",
"x. c #936C63",
"c. c #A96E62",
"v. c #A37667",
"b. c #B3796D",
"n. c #BC7061",
"m. c #A67C72",
"M. c #B07F75",
"N. c #D54E40",
"B. c #CA594A",
"V. c #D95344",
"C. c #E25A4B",
"Z. c #FC5744",
"A. c #CA6C4F",
"S. c #DF604C",
"D. c #C6695A",
"F. c #D77157",
"G. c #CD715D",
"H. c #EE6C46",
"J. c #E37142",
"K. c #E76152",
"L. c #F66F44",
"P. c #D67B6B",
"I. c #D77C72",
"U. c #C67265",
"Y. c #F87C6A",
"T. c #8D807A",
"R. c #96857D",
"E. c #A6816E",
"W. c #AE807B",
"Q. c #B48679",
"!. c #BA977B",
"~. c #F88546",
"^. c #F6904E",
"/. c #EC8959",
"(. c #F68C59",
"). c #ED9A5F",
"_. c #F99A5D",
"`. c #FBA258",
"'. c #FFB35A",
"]. c #D58968",
"[. c #E48D6C",
"{. c #FE806E",
"}. c #E79A67",
"|. c #F99F6B",
" X c #F08171",
".X c #CAA37A",
"XX c #F2A56A",
"oX c #EAAE77",
"OX c #FCB87A",
"+X c #FAB16A",
"@X c #FEC961",
"#X c #FBC87D",
"$X c #818181",
"%X c #988A83",
"&X c #B68F82",
"*X c #AB9088",
"=X c #BC9E8D",
"-X c #DB9E89",
";X c #CCA885",
":X c #D3A281",
">X c #DDAD90",
",X c #DBB599",
"<X c #F2AE80",
"1X c #F3AD8B",
"2X c #EFB481",
"3X c #EEBC99",
"4X c #FBBB91",
"5X c #F4B685",
"6X c #FFC08A",
"7X c #FFD385",
"8X c #FFC692",
"9X c #F3C5AB",
"0X c #EDD0C0",
"qX c #FEDAC0",
"wX c None",
/* pixels */
"wXwXwXwXwXwXwXwXwXwXwXwXwXwXwXwXwXwXwXwXwXwXwXwXwXwXwXwXwXwXwXwXwXwXwXwXwXwXwXwXwXwXwXwXwXwXwXwXwXwXwXwXwXwXwXwXwXwXwXwXwXwXwXwX",
"wXwXwXwXwXwXwXwXwXwXwXwXwXwXwXwXwXwXwXwXwXwXwXwXwXwXwXwXwXwXwXwXwXwXwXwXwXwXwXwXwXwXwXwXwXwXwXwXwXwXwXwXwXwXwXwXwXwXwXwXwXwXwXwX",
"wXwXwXwXwXwXwXwXwXwXwXwXwXwXwXwXwXwXwXwXwXwXwXwXwXwXwXwXwXwXwXwXwXwXwXwXwXwXwXwXwXwXwXwXwXwXwXwXwXwXwXwXwXwXwXwXwXwXwXwXwXwXwXwX",
"wXwXwXwXwXwXwXwXwXwXwXwXwXwXwXwXwXwXwXwXwXwXwXwXwXwXwXwXwXwXwXwXwXwXwXwXwXwXwXwXwXwXwXwXwXwXwXwXwXwXwXwXwXwXwXwXwXwXwXwXwXwXwXwX",
"wXwXwXwXwXwXwXwXwXwXwXwXwXwXwXwXwXwXwXwXwXwXwXwXwXwXwXwXwXwXwXwXwXwXwXwXwXwXwXwXwXwXwXwXwXwXwXwXwXwXwXwXwXwXwXwXwXwXwXwXwXwXwXwX",
"wXwXwXwXwXwXwXwXwXwXwXwXwXwXwXwXwXwXwXwXwXwXwXwXwXwXwXwXwXwXwXwXwXwXwXwXwXwXwXwXwXwXwXwXwXwXwXwXwXwXwXwXwXwXwXwXwXwXwXwXwXwXwXwX",
"wXwXwXwXwXwXwXwXwXwXwXwXwXwXwXwXwXwXwXwXwXwXwXwXwXwXwXwXwXwXwXwXwXwXwXwXwXwXwXwXwXwXwXwXwXwXwXwXwXwXwXwXwXwXwXwXwXwXwXwXwXwXwXwX",
"wXwXwXwXwXwXwXwXwXwXwXwXwXwXwXwXwXwXwXwXwXwXwXwXwXwXwXwXwXwXwXwXwXwXwXwXwXwXwXwXwXwXwXwXwXwXwXwXwXwXwXwXwXwXwXwXwXwXwXwXwXwXwXwX",
"wXwXwXwXwXwXwXwXwXwXwXwXwXwXwXwXwXwXwXwXwXwXwXwXwXwXwXwXwXwXwXwXwXwXwXwXwXwXwXwXwXwXwXwXwXwXwXwXwXwXwXwXwXwXwXwXwXwXwXwXwXwXwXwX",
"wXwXwXwXwXwXwXwXwXwXwXwXwXwXwXwXwXwXwXwXwXwXwXwXwXwXwXwXwXwXwXwXwXwXwXwXwXwXwXwXwXwXwXwXwXwXwXwXwXwXwXwXwXwXwXwXwXwXwXwXwXwXwXwX",
"wXwXwXwXwXwXwXwXwXwXwXwXwXwXwXwXwXwXwXwXwXwXwXwXwXwXwXwXwXwXwXwXwXwXwXwXwXwXwXwXwXwXwXwXwXwXwXwXwXwXwXwXwXwXwXwXwXwXwXwXwXwXwXwX",
"wXwXwXwXwXwXwXwXwXwXwXwXwXwXwXwXwXwXwXwXwXwXwXwXwXwXwXwXwXwXwXwXwXwXwXwXwXwXwXwXwXwXwXwXwXwXwXwXwXwXwXwXwXwXwXwXwXwXwXwXwXwXwXwX",
"wXwXwXwXwXwXwXwXwXwXwXwXwXwXwXwXwXwXwXwXwXwXwXwXwXwXwXwXwXwXwXwXwXwXwXwXwXwXwXwXwXwXwXwXwXwXwXwXwXwXwXwXwXwXwXwXwXwXwXwXwXwXwXwX",
"wXwXwXwXwXwXwXwXwXwXwXwXwXwXwXwXwXwXwXwXwXwXwXwXwXwXwXwXwXwXwXwXwXwXwXwXwXwXwXwXwXwXwXwXwXwXwXwXwXwXwXwXwXwXwXwXwXwXwXwXwXwXwXwX",
"wXwXwXwXwXwXwXwXwXwXwXwXwXwXwXwXwXwXwXwXwXwXwXwXwXwXwXwXwXwXwXwXwXwXwXwXwXwXwXwXwXwXwXwXwXwXwXwXwXwXwXwXwXwXwXwXwXwXwXwXwXwXwXwX",
"wXwXwXwXwXwXwXwXwXwXwXwXwXwXwXwXwXwXwXwXwXwXwXwXwXwXwXwXwXwXwXwXwXwXwXwXwXwXwXwXwXwXwXwXwXwXwXwXwXwXwXwXwXwXwXwXwXwXwXwXwXwXwXwX",
"wXwXwXwXwXwXwXwXwXwXwXwXwXwXwXwXwXwXwXwXwXwXwXwXwXwXwXwXwXwXwXwXwXwXwXwXwXwXwXwXwXwXwXwXwXwXwXwXwXwXwXwXwXwXwXwXwXwXwXwXwXwXwXwX",
"wXwXwXwXwXwXwXwXwXwXwXwXwXwXwXwXwXwXwXwXwXwXwXwXwXwXwXwXwXwXwXwXwXwXwXwXwXwXwXwXwXwXwXwXwXwXwXwXwXwXwXwXwXwXwXwXwXwXwXwXwXwXwXwX",
"wXwXwXwXwXwXwXwXwXwXwXwXwXwXwXwXwXwXwXwXwXwXwXwXwXwXwXwXwXwXwXwXwXwXwXwXwXwXwXwXwXwXwXwXwXwXwXwXwXwXwXwXwXwXwXwXwXwXwXwXwXwXwXwX",
"wXwXwXwXwXwXwXwXwXD C wXwXwXwXwXwXwXwXwXwXwXwXwXwXwXwXwXwXwXwXwXwXwX*XwXwXwXwXwXwXwXwXwXwXwXwXwXwXwXwXwXwXwXwXwXwXwXwXwXwXwXwXwX",
"wXwXwXwXwXwXwXwXwXi p wXwXwXwXwXwXwXwXwXwXwXwXwXwXwXwXwXwXwXwXwXwXwXwXwXwXwXwXwXwXwXwXwXwXwXwXwXwXwXwXwXwXwXwXwXwXwXwXwXwXwXwXwX",
"wXwXwXwXwXwXwXwXwXk wXwXwXwXwXwXwXwXwXwXwXwXwXwXwXwXwXwXwXwXwXwXwX%XwXwXwXwXwXwXwXwXwXwXwXwXwXwXwXwXwXwXwXwXwXwXwXwXwXwXwXwXwXwX",
"wXwXwXwXwXwXwXwXwXe wXwX7 7 @ 6 X 5 X O O O O # wXwXO.O.,.e.r.r.q.m.z.) ) wXwXwXwXwXwXwXwXwXwXwXwXwXwXwXwXwXwXwXwXwXwXwXwXwXwXwX",
"wXwXwXwXwXwXwXwXwX= < < @ o 5 X 8 @ . . . @ 8 r C c B Y N >.>.j.F.G.E.Q D wXwXwXwXwXwXwXwXwXwXwXwXwXwXwXwXwXwXwXwXwXwXwXwXwXwXwX",
"wXwXwXwXwX% * a v r w u g $.X.f B = e $ % 2 < , D x M J s h s.`.(.~.J.1.t i q %.%.' } } p 2 < z z x z c > d wXwXwXwXwXwXwXwXwXwX",
"wXwXwXwXwXD C A 2.o.&.c M +.d B d b ..% < V > < H n X.g g s.XX6XOX'.~.L.h.Q.e.Z.Z.N.x  .m 2 2 m  .z z z 1 D wXwXwXwXwXwXwXwXwXwX",
"wXwXwXwXwXJ F s n X.] [ O.N h X.< o.v % 1 2 ; < C c i s i.oX}.|.+X^.~.H.y.l...:.-.@.z | m 1 1 c  .p } , 1 H wXwXwXwXwXwXwXwXwXwX",
"wXwXwXwXwXwXwXwXwXwXwXwXv e e e * x * $ - % % ; < l h E :X5X}.5X#X`.~.L.3.>.5 $.N.e.f Q K K G Y Y Z M S G R wXwXwXwXwXwXwXwXwXwX",
"wXwXwXwXwXwXwXwXwXwXwXwX; % % % * % ; ; ; ; ; ; % j T Q.3XoX8X8X#X@X_.(.[.P.wXwXwXwX# ^ L P L L K F G F G D wXwXwXwXwXwXwXwXwXwX",
"wXwXwXwXwXwXwXwXwXwXwXwXwXwXwXwXwXwXwXwXwXwXwXwXwXwXE.5XoX9X9X4XXX/.(.|./.D.wXwXwXwX  : : : : & & & & & # H wXwXwXwXwXwXwXwXwXwX",
"wXwXwXwXwXwXwXwXwXwXwXwXwXwXwXwXwXwXwXwXwXwXwXwXwXwX.XoXj.>X9X1XA.7.].(.1.wXwXwXwXwXwX$XW.I.I.l./ ^ P I s Z wXwXwXwXwXwXwXwXwXwX",
"wXwXwXwXwXwXwXwXwXwXwXwXwXwXwXwXwXwXwXwXwXwXwXwXwXwX!.i.0.,X0X-Xv.f.[.).wXwXwXwXwXwXwX$XI.Y.Y.Y.z.( / P N A wXwXwXwXwXwXwXwXwXwX",
"wXwXwXwXwXwXwXwXwXwXwXwXwXwXwXwXwXwXwXwXwXwXwXwXwXwXE T q.,X=XwXi.a.F.].wXwXwXwXwXwXwXwXwX3.2.Y.Q.) / ! B 2 wXwXwXwXwXwXwXwXwXwX",
"wXwXwXwXwXwXwXwXwXwXwXwXwXwXwXwXwXwXwXwXwXwXwXwXwXwXU T 0.;XwXwXwX2.V.K.wXwXwXwXwXwXwXwXwXwXwXe.M.( ^ q.f 1 wXwXwXwXwXwXwXwXwXwX",
"wXwXwXwXwXwXwXwXwXwXwXwXwXwXwXwXwXwXwXwXwXwXwXwXwXwXE W i.;XwXwXwX#.4.C.wXwXwXwXwXwXwXwXwXwXwXwX9.~ E h.d , wXwXwXwXwXwXwXwXwXwX",
"wXwXwXwXwXwXwXwXwXwXwXwXwXwXwXwXwXwXwXwXwXwXwXwXwXwXz.g.f.E.U wXwXX.=.K.;.wXwXwXwXwXwXwXwXwXwXwXwXN 9.d.f : wXwXwXwXwXwXwXwXwXwX",
"wXwXwXwXwXwXwXwXwXwXwXwXwXwXwXwXwXwXwXwXwXwXwXwXwXwXv.B.h.M.wXwXwXx ` V.6.wXwXwXwXwXwXwXwXwXwXwXwXwX9.0.e & wXwXwXwXwXwXwXwXwXwX",
"wXwXwXwXwXwXwXwXwXwXwXwXwXwXwXwXwXwXwXwXwXwXwXwXwXwXn.B.f.%XwXwXwXwX4 ;.C.wXwXwXwXwXwXwXwXwXwXwXwXwXwXw.u : wXwXwXwXwXwXwXwXwXwX",
"wXwXwXwXwXwXwXwXwXwXwXwXwXwXwXwXwXwXwXwXwXwXwXwXwXwXU.g.x.%XwXwXwXwX3 { C.=.wXwXwXwXwXwXwXwXwXwXwXwXwXwXv > wXwXwXwXwXwXwXwXwXwX",
"wXwXwXwXwXwXwXwXwXwXwXwXwXwXwXwXwXwXwXwXwXwXwXwXwXR.a.q.d.*XwXwXwXwX3 [ N.5.wXwXwXwXwXwXwXwXwXwXwXwXwXwX6 + wXwXwXwXwXwXwXwXwXwX",
"wXwXwXwXwXwXwXwXwXwXwXwXwXwXwXwXwXwXwXwXwXwXwXwXwXR.i.u.D.&XwXwXwXwXwX0 =.7.wXwXwXwXwXwXwXwXwXwXwXwXwXwXwXwXwXwXwXwXwXwXwXwXwXwX",
"wXwXwXwXwXwXwXwXwXwXwXwXwXwXwXwXwXwXwXwXwXwXwXwXwXR.p.B.D.wXwXwXwXwXwX4 $.7.*.wXwXwXwXwXwXwXwXwXwXwXwXwXwXwXwXwXwXwXwXwXwXwXwXwX",
"wXwXwXwXwXwXwXwXwXwXwXwXwXwXwXwXwXwXwXwXwXwXwXwXwXk.r.y.F.wXwXwXwXwXwXwX[ 6.-.wXwXwXwXwXwXwXwXwXwXwXwXwXwXwXwXwXwXwXwXwXwXwXwXwX",
"wXwXwXwXwXwXwXwXwXwXwXwXwXwXwXwXwXwXwXwXwXwXwXwXwXl.2.<.U.wXwXwXwXwXwXwX` 4.6.wXwXwXwXwXwXwXwXwXwXwXwXwXwXwXwXwXwXwXwXwXwXwXwXwX",
"wXwXwXwXwXwXwXwXwXwXwXwXwXwXwXwXwXwXwXwXwXwXwXwXwXc.8.9.b.wXwXwXwXwXwXwX0 =.wXwXwXwXwXwXwXwXwXwXwXwXwXwXwXwXwXwXwXwXwXwXwXwXwXwX",
"wXwXwXwXwXwXwXwXwXwXwXwXwXwXwXwXwXwXwXwXwXwXwXwXwXh.8.y.b.wXwXwXwXwXwXwXwXwXwXwXwXwXwXwXwXwXwXwXwXwXwXwXwXwXwXwXwXwXwXwXwXwXwXwX",
"wXwXwXwXwXwXwXwXwXwXwXwXwXwXwXwXwXwXwXwXwXwXwXwXwXa.y.y.b.wXwXwXwXwXwXwXwXwXwXwXwXwXwXwXwXwXwXwXwXwXwXwXwXwXwXwXwXwXwXwXwXwXwXwX",
"wXwXwXwXwXwXwXwXwXwXwXwXwXwXwXwXwXwXwXwXwXwXwXwXwXwXwXc.wXwXwXwXwXwXwXwXwXwXwXwXwXwXwXwXwXwXwXwXwXwXwXwXwXwXwXwXwXwXwXwXwXwXwXwX",
"wXwXwXwXwXwXwXwXwXwXwXwXwXwXwXwXwXwXwXwXwXwXwXwXwXwXwXwXwXwXwXwXwXwXwXwXwXwXwXwXwXwXwXwXwXwXwXwXwXwXwXwXwXwXwXwXwXwXwXwXwXwXwXwX",
"wXwXwXwXwXwXwXwXwXwXwXwXwXwXwXwXwXwXwXwXwXwXwXwXwXwXwXwXwXwXwXwXwXwXwXwXwXwXwXwXwXwXwXwXwXwXwXwXwXwXwXwXwXwXwXwXwXwXwXwXwXwXwXwX",
"wXwXwXwXwXwXwXwXwXwXwXwXwXwXwXwXwXwXwXwXwXwXwXwXwXwXwXwXwXwXwXwXwXwXwXwXwXwXwXwXwXwXwXwXwXwXwXwXwXwXwXwXwXwXwXwXwXwXwXwXwXwXwXwX",
"wXwXwXwXwXwXwXwXwXwXwXwXwXwXwXwXwXwXwXwXwXwXwXwXwXwXwXwXwXwXwXwXwXwXwXwXwXwXwXwXwXwXwXwXwXwXwXwXwXwXwXwXwXwXwXwXwXwXwXwXwXwXwXwX",
"wXwXwXwXwXwXwXwXwXwXwXwXwXwXwXwXwXwXwXwXwXwXwXwXwXwXwXwXwXwXwXwXwXwXwXwXwXwXwXwXwXwXwXwXwXwXwXwXwXwXwXwXwXwXwXwXwXwXwXwXwXwXwXwX",
"wXwXwXwXwXwXwXwXwXwXwXwXwXwXwXwXwXwXwXwXwXwXwXwXwXwXwXwXwXwXwXwXwXwXwXwXwXwXwXwXwXwXwXwXwXwXwXwXwXwXwXwXwXwXwXwXwXwXwXwXwXwXwXwX",
"wXwXwXwXwXwXwXwXwXwXwXwXwXwXwXwXwXwXwXwXwXwXwXwXwXwXwXwXwXwXwXwXwXwXwXwXwXwXwXwXwXwXwXwXwXwXwXwXwXwXwXwXwXwXwXwXwXwXwXwXwXwXwXwX",
"wXwXwXwXwXwXwXwXwXwXwXwXwXwXwXwXwXwXwXwXwXwXwXwXwXwXwXwXwXwXwXwXwXwXwXwXwXwXwXwXwXwXwXwXwXwXwXwXwXwXwXwXwXwXwXwXwXwXwXwXwXwXwXwX",
"wXwXwXwXwXwXwXwXwXwXwXwXwXwXwXwXwXwXwXwXwXwXwXwXwXwXwXwXwXwXwXwXwXwXwXwXwXwXwXwXwXwXwXwXwXwXwXwXwXwXwXwXwXwXwXwXwXwXwXwXwXwXwXwX",
"wXwXwXwXwXwXwXwXwXwXwXwXwXwXwXwXwXwXwXwXwXwXwXwXwXwXwXwXwXwXwXwXwXwXwXwXwXwXwXwXwXwXwXwXwXwXwXwXwXwXwXwXwXwXwXwXwXwXwXwXwXwXwXwX",
"wXwXwXwXwXwXwXwXwXwXwXwXwXwXwXwXwXwXwXwXwXwXwXwXwXwXwXwXwXwXwXwXwXwXwXwXwXwXwXwXwXwXwXwXwXwXwXwXwXwXwXwXwXwXwXwXwXwXwXwXwXwXwXwX",
"wXwXwXwXwXwXwXwXwXwXwXwXwXwXwXwXwXwXwXwXwXwXwXwXwXwXwXwXwXwXwXwXwXwXwXwXwXwXwXwXwXwXwXwXwXwXwXwXwXwXwXwXwXwXwXwXwXwXwXwXwXwXwXwX",
"wXwXwXwXwXwXwXwXwXwXwXwXwXwXwXwXwXwXwXwXwXwXwXwXwXwXwXwXwXwXwXwXwXwXwXwXwXwXwXwXwXwXwXwXwXwXwXwXwXwXwXwXwXwXwXwXwXwXwXwXwXwXwXwX",
"wXwXwXwXwXwXwXwXwXwXwXwXwXwXwXwXwXwXwXwXwXwXwXwXwXwXwXwXwXwXwXwXwXwXwXwXwXwXwXwXwXwXwXwXwXwXwXwXwXwXwXwXwXwXwXwXwXwXwXwXwXwXwXwX",
"wXwXwXwXwXwXwXwXwXwXwXwXwXwXwXwXwXwXwXwXwXwXwXwXwXwXwXwXwXwXwXwXwXwXwXwXwXwXwXwXwXwXwXwXwXwXwXwXwXwXwXwXwXwXwXwXwXwXwXwXwXwXwXwX",
"wXwXwXwXwXwXwXwXwXwXwXwXwXwXwXwXwXwXwXwXwXwXwXwXwXwXwXwXwXwXwXwXwXwXwXwXwXwXwXwXwXwXwXwXwXwXwXwXwXwXwXwXwXwXwXwXwXwXwXwXwXwXwXwX"
};
