/* XPM */
static char *result[] = {
/* columns rows colors chars-per-pixel */
"64 64 253 2 ",
"   c #010101",
".  c #020202",
"X  c gray3",
"o  c #090909",
"O  c gray4",
"+  c #0B0B0B",
"@  c #0C0C0C",
"#  c #0E0E0E",
"$  c gray6",
"%  c #1D0F05",
"&  c #101010",
"*  c #111111",
"=  c gray7",
"-  c gray8",
";  c #151515",
":  c gray9",
">  c #1F1915",
",  c #181818",
"<  c #191919",
"1  c gray10",
"2  c #1B1B1B",
"3  c gray11",
"4  c #1E1E1E",
"5  c gray12",
"6  c #25150A",
"7  c #311A09",
"8  c #201813",
"9  c #251B13",
"0  c #251B14",
"q  c #271D16",
"w  c #2A1E15",
"e  c #281E17",
"r  c #3E210D",
"t  c #3E220D",
"y  c #3F220D",
"u  c #3F220E",
"i  c #2B211A",
"p  c #2D231B",
"a  c #362010",
"s  c #362314",
"d  c #3B2516",
"f  c #30261E",
"g  c #3C291A",
"h  c #392A1E",
"j  c #3F2B1D",
"k  c gray13",
"l  c #232323",
"z  c gray15",
"x  c #272727",
"c  c #282726",
"v  c #2A2826",
"b  c #2C2825",
"n  c #272929",
"m  c #282828",
"M  c #282929",
"N  c gray16",
"B  c #292A2B",
"V  c #2A2A2A",
"C  c gray17",
"Z  c #2C2C2C",
"A  c #2D2D2D",
"S  c #2C2E2E",
"D  c #2D2E2E",
"F  c gray18",
"G  c #2F2F2F",
"H  c #322720",
"J  c #342A23",
"K  c #352B23",
"L  c #322B26",
"P  c #362B24",
"I  c #372D26",
"U  c #392E27",
"Y  c #392F27",
"T  c #302C2A",
"R  c #392F28",
"E  c #3A2F28",
"W  c #39312A",
"Q  c #2F2F30",
"!  c #2F3030",
"~  c #2E3031",
"^  c #313131",
"/  c #323130",
"(  c #303132",
")  c #313132",
"_  c #313233",
"`  c #323232",
"'  c #353535",
"]  c #3D3834",
"[  c #363738",
"{  c #373738",
"}  c gray22",
"|  c #393939",
" . c #3A3A3A",
".. c #3B3C3C",
"X. c #3B3C3D",
"o. c #3C3C3C",
"O. c #3F3F3F",
"+. c #41230F",
"@. c #42240F",
"#. c #4C250A",
"$. c #4C260B",
"%. c #4C270C",
"&. c #4D280D",
"*. c #4C2A0F",
"=. c #422510",
"-. c #432611",
";. c #432612",
":. c #432712",
">. c #442712",
",. c #442713",
"<. c #452713",
"1. c #452813",
"2. c #482B12",
"3. c #4F2B10",
"4. c #4B2B14",
"5. c #4C2C14",
"6. c #412B18",
"7. c #402B1A",
"8. c #442A18",
"9. c #462D19",
"0. c #402C1D",
"q. c #502D12",
"w. c #502F14",
"e. c #513016",
"r. c #573316",
"t. c #5D3111",
"y. c #5C3213",
"u. c #5F3312",
"i. c #583417",
"p. c #533318",
"a. c #55371C",
"s. c #61310F",
"d. c #72380F",
"f. c #74390F",
"g. c #643412",
"h. c #603615",
"j. c #613717",
"k. c #6C3711",
"l. c #6D3913",
"z. c #6B3B16",
"x. c #603919",
"c. c #693B18",
"v. c #743B12",
"b. c #763C11",
"n. c #753D14",
"m. c #783D13",
"M. c #7F3E11",
"N. c #413024",
"B. c #4D3926",
"V. c #593C23",
"C. c #413934",
"Z. c #7D4115",
"A. c #72431E",
"S. c #44403D",
"D. c #634225",
"F. c #774923",
"G. c #414242",
"H. c gray26",
"J. c #424343",
"K. c #424344",
"L. c #444444",
"P. c gray27",
"I. c #464646",
"U. c #484644",
"Y. c #464748",
"T. c #4B4B4B",
"R. c #4C4D4D",
"E. c gray30",
"W. c #4C4D4E",
"Q. c #4F5051",
"!. c #535353",
"~. c #535454",
"^. c #535455",
"/. c gray33",
"(. c #555555",
"). c #555657",
"_. c #565656",
"`. c #575858",
"'. c #575859",
"]. c #585859",
"[. c #585959",
"{. c #58595A",
"}. c #595A5A",
"|. c #595A5B",
" X c #5A5A5A",
".X c gray36",
"XX c #5C5D5E",
"oX c #5D5D5E",
"OX c #5E5E5F",
"+X c #5F6060",
"@X c #626363",
"#X c #686969",
"$X c gray42",
"%X c #813F10",
"&X c #814011",
"*X c #844111",
"=X c #894412",
"-X c #8B4412",
";X c #8B4512",
":X c SaddleBrown",
">X c #8C4512",
",X c #8D4614",
"<X c #8C4715",
"1X c #8D4715",
"2X c #8D4815",
"3X c #8D4917",
"4X c #8E4816",
"5X c #8F4916",
"6X c #8E4917",
"7X c #8F4A17",
"8X c #834719",
"9X c #82471A",
"0X c #8E4F1E",
"qX c #904F1E",
"wX c #914F1E",
"eX c #91501E",
"rX c #92501E",
"tX c #93511E",
"yX c #854E21",
"uX c #844E22",
"iX c #854E22",
"pX c #854F22",
"aX c #854F23",
"sX c #864F22",
"dX c #874F22",
"fX c #864F23",
"gX c #874F23",
"hX c #8B5224",
"jX c #8D5425",
"kX c #8C5629",
"lX c #905120",
"zX c #915120",
"xX c #935220",
"cX c #935221",
"vX c #925322",
"bX c #935322",
"nX c #945321",
"mX c #915423",
"MX c #955421",
"NX c #945422",
"BX c #945624",
"VX c #955725",
"CX c #955928",
"ZX c #965928",
"AX c #975A28",
"SX c #965D2C",
"DX c #985D2C",
"FX c #985D2D",
"GX c #995E2C",
"HX c #985E2D",
"JX c #995E2D",
"KX c #9A5F2D",
"LX c None",
/* pixels */
"LXLXLXLXLXLXLXLXLXLXLXLXLXLXLXLXLXLXLXLXLXLXLXLXLXLXLXLXLXLXLXLXLXLXLXLXLXLXLXLXLXLXLXLXLXLXLXLXLXLXLXLXLXLXLXLXLXLXLXLXLXLXLXLX",
"LXLXLXLXLXLXLXLXLXLXLXLXLXLXLXLXLXLXLXLXLXLXLXLXLXLXLXLXLXLXLXLXLXLXLXLXLXLXLXLXLXLXLXLXLXLXLXLXLXLXLXLXLXLXLXLXLXLXLXLXLXLXLXLX",
"LXLXLXLXLXLXLXLXLXLXLXLXLXLXLXLXLXLXLXLXLXLXLXLXLXLXLXLXLXLXLXLXLXLXLXLXLXLXLXLXLXLXLXLXLXLXLXLXLXLXLXLXLXLXLXLXLXLXLXLXLXLXLXLX",
"LXLXLXLXLXLXLXLXLXLXLXLXLXLXLXLXLXLXLXLXLXLXLXLXLXLXLXLXLXLXLXLXLXLXLXLXLXLXLXLXLXLXLXLXLXLXLXLXLXLXLXLXLXLXLXLXLXLXLXLXLXLXLXLX",
"LXLXLXLXLXLXLXLXLXLXLXLXLXLXLXLXLXLXLXLXLXLXLXLXLXLXLXLXLXLXLXLXLXLXLXLXLXLXLXLXLXLXLXLXLXLXLXLXLXLXLXLXLXLXLXLXLXLXLXLXLXLXLXLX",
"LXLXLXLXLXLXLXLXLXLXLXLXLXLXLXLXLXLXLXLXLXLXLXLXLXLXLXLXLXLXLXLXLXLXLXLXLXLXLXLXLXLXLXLXLXLXLXLXLXLXLXLXLXLXLXLXLXLXLXLXLXLXLXLX",
"LXLXLXLXLXLXLXLXLXLXLXLXLXLXLXLXLXLXLXLXLXLXLXLXLXLXLXLXLXLXLXLXLXLXLXLXLXLXLXLXLXLXLXLXLXLXLXLXLXLXLXLXLXLXLXLXLXLXLXLXLXLXLXLX",
"LXLXLXLXLXLXLXLXLXLXLXLXLXLXLXLXLXLXLXLXLXLXLXLXLXLXLXLXLXLXLXLXLXLXLXLXLXLXLXLXLXLXLXLXLXLXLXLXLXLXLXLXLXLXLXLXLXLXLXLXLXLXLXLX",
"LXLXLXLXLXLXLXLXLXLXLXLXLXLXLXLXLXLXLXLXLXLXLXLXLXLXLXLXLXLXLXLXLXLXLXLXLXLXLXLXLXLXLXLXLXLXLXLXLXLXLXLXLXLXLXLXLXLXLXLXLXLXLXLX",
"LXLXLXLXLXLXLXLXLXLXLXLXLXLXLXLXLXLXLXLXLXLXLXLXLXLXLXLXLXLXLXLXLXLXLXLXLXLXLXLXLXLXLXLXLXLXLXLXLXLXLXLXLXLXLXLXLXLXLXLXLXLXLXLX",
"LXLXLXLXLXLXLXLXLXLXLXLXLXLXLXLXLXLXLXLXLXLXLXLXLXLXLXLXLXLXLXLXLXLXLXLXLXLXLXLXLXLXLXLXLXLXLXLXLXLXLXLXLXLXLXLXLXLXLXLXLXLXLXLX",
"LXLXLXLXLXLXLXLXLXLXLXLXLXLXLXLXLXLXLXLXLXLXLXLXLXLXLXLXLXLXLXLXLXLXLXLXLXLXLXLXLXLXLXLXLXLXLXLXLXLXLXLXLXLXLXLXLXLXLXLXLXLXLXLX",
"LXLXLXLXLXLXLXLXLXLXLXLXLXLXLXLXLXLXLXLXLXLXLXLXLXLXLXLXX x | ^ L.A  .1   LXLXLXLXLXLXLXLXLXLXLXLXLXLXLXLXLXLXLXLXLXLXLXLXLXLXLX",
"LXLXLXLXLXLXLXLXLXLXLXLXLXLXLXLXLXLXLXLXLXLXLXLXLXLX5  .| T.OXK._ Q.XXO. .' LXLXLXLXLXLXLXLXLXLXLXLXLXLXLXLXLXLXLXLXLXLXLXLXLXLX",
"LXLXLXLXLXLXLXLXLXLXLXLXLXLXLXLXLXLXLXLXLXLXLXLXLXLXP.$XoXc h d s 0.w } #X.XF LXLXLXLXLXLXLXLXLXLXLXLXLXLXLXLXLXLXLXLXLXLXLXLXLX",
"LXLXLXLXLXLXLXLXLXLXLXLXLXLXLXLXLXLXLXLXLXLXLXLXLXo.G.U.N.y.kX=XmXlXd.V.W / (.| LXLXLXLXLXLXLXLXLXLXLXLXLXLXLXLXLXLXLXLXLXLXLXLX",
"LXLXLXLXLXLXLXLXLXLXLXLXLXLXLXLXLXLXLXLXLXLXLXLXF @XS.D.8X7XDX:XBXbX1XSXb.8. XI.. LXLXLXLXLXLXLXLXLXLXLXLXLXLXLXLXLXLXLXLXLXLXLX",
"LXLXLXLXLXLXLXLXLXLXLXLXLXLXLXLXLXLXLXLXLXLXLXLXo.+Xj jXrX3XDX:XBXvX<XHX5Xk.] O.2 LXLXLXLXLXLXLXLXLXLXLXLXLXLXLXLXLXLXLXLXLXLXLX",
"LXLXLXLXLXLXLXLXLXLXLXLXLXLXLXLXLXLXLXLXLXLXLX3 ' v s.ZXwX3XDX:XBXvX<XDX<X0XB.!.H.LXLXLXLXLXLXLXLXLXLXLXLXLXLXLXLXLXLXLXLXLXLXLX",
"LXLXLXLXLXLXLXLXLXLXLXLXLXLXLXLXLXLXLXLXLXLXLXZ '.a %XZXqX3XDX:XBXvX<XDX<XcXF.C.].= LXLXLXLXLXLXLXLXLXLXLXLXLXLXLXLXLXLXLXLXLXLX",
"LXLXLXLXLXLXLXLXLXLXLXLXLXLXLXLXLXLXLXLXLXLXLXm Q.>.-XCXqX3XDX:XBXvX<XDX<XcXsXK Q.* LXLXLXLXLXLXLXLXLXLXLXLXLXLXLXLXLXLXLXLXLXLX",
"LXLXLXLXLXLXLXLXLXLXLXLXLXLXLXLXLXLXLXLXLXLXLX- n r ;XCXqX3XDX:XBXvX<XDX<XcXfX9 M X LXLXLXLXLXLXLXLXLXLXLXLXLXLXLXLXLXLXLXLXLXLX",
"LXLXLXLXLXLXLXLXLXLXLXLXLXLXLXLXLXLXLXLXLXLXLXV ^.:.-XCXqX3XDX:XBXvX<XDX2XMXdXI ~.* LXLXLXLXLXLXLXLXLXLXLXLXLXLXLXLXLXLXLXLXLXLX",
"LXLXLXLXLXLXLXLXLXLXLXLXLXLXLXLXLXLXLXLXLXLXLXC ).>.-XCXqX3XDX:XBXvX<XHXv.j.i.L _.= LXLXLXLXLXLXLXLXLXLXLXLXLXLXLXLXLXLXLXLXLXLX",
"LXLXLXLXLXLXLXLXLXLXLXLXLXLXLXLXLXLXLXLXLXLXLX; B t -XCXqX3XDX:XBXvX<XGX4.~ ! k V o LXLXLXLXLXLXLXLXLXLXLXLXLXLXLXLXLXLXLXLXLXLX",
"LXLXLXLXLXLXLXLXLXLXLXLXLXLXLXLXLXLXLXLXLXLXLXz W.-.-XCXqX3XDX:XBXvX<XJXg.9.6.b E.& LXLXLXLXLXLXLXLXLXLXLXLXLXLXLXLXLXLXLXLXLXLX",
"LXLXLXLXLXLXLXLXLXLXLXLXLXLXLXLXLXLXLXLXLXLXLXZ {.,.-XCXqX3XDX:XBXvX<XDX<XxXyXY [.= LXLXLXLXLXLXLXLXLXLXLXLXLXLXLXLXLXLXLXLXLXLX",
"LXLXLXLXLXLXLXLXLXLXLXLXLXLXLXLXLXLXLXLXLXLXLX< ( u ;XAXtX6XDX:XBXvX<XDX<XcXaXe ) O LXLXLXLXLXLXLXLXLXLXLXLXLXLXLXLXLXLXLXLXLXLX",
"LXLXLXLXLXLXLXLXLXLXLXLXLXLXLXLXLXLXLXLXLXLXLXk K.=.*XA.z.Z.DX:XBXvX<XDX<XcXiXf J.# LXLXLXLXLXLXLXLXLXLXLXLXLXLXLXLXLXLXLXLXLXLX",
"LXLXLXLXLXLXLXLXLXLXLXLXLXLXLXLXLXLXLXLXLXLXLXA |.1.M.7 % l.GX:XBXvX<XDX<XcXiXE }.= LXLXLXLXLXLXLXLXLXLXLXLXLXLXLXLXLXLXLXLXLXLX",
"LXLXLXLXLXLXLXLXLXLXLXLXLXLXLXLXLXLXLXLXLXLXLX4 X.@.f.a.h.t.GX:XBXvX<XDX<XcXpXp ..@ LXLXLXLXLXLXLXLXLXLXLXLXLXLXLXLXLXLXLXLXLXLX",
"LXLXLXLXLXLXLXLXLXLXLXLXLXLXLXLXLXLXLXLXLXLXLX3 [ +.&Xr.*.n.DX:XBXvX<XDX<XcXaXi { + LXLXLXLXLXLXLXLXLXLXLXLXLXLXLXLXLXLXLXLXLXLX",
"LXLXLXLXLXLXLXLXLXLXLXLXLXLXLXLXLXLXLXLXLXLXLXZ |.,.>XhX9X3XDX:XBXvX<XDX<XcXiXE }.= LXLXLXLXLXLXLXLXLXLXLXLXLXLXLXLXLXLXLXLXLXLX",
"LXLXLXLXLXLXLXLXLXLXLXLXLXLXLXLXLXLXLXLXLXLXLXl Y.=.-XZXeX3XDX:XBXvX<XDX<XcXiXH Y.$ LXLXLXLXLXLXLXLXLXLXLXLXLXLXLXLXLXLXLXLXLXLX",
"LXLXLXLXLXLXLXLXLXLXLXLXLXLXLXLXLXLXLXLXLXLXLX: S y -XCXqX3XDX:XBXvX<XDX<XcXaXq D o LXLXLXLXLXLXLXLXLXLXLXLXLXLXLXLXLXLXLXLXLXLX",
"LXLXLXLXLXLXLXLXLXLXLXLXLXLXLXLXLXLXLXLXLXLXLXZ '.>.-XCXqX3XDX:XBXvX<XDX<XcXiXU `.= LXLXLXLXLXLXLXLXLXLXLXLXLXLXLXLXLXLXLXLXLXLX",
"LXLXLXLXLXLXLXLXLXLXLXLXLXLXLXLXLXLXLXLXLXLXLXm Q.;.-XCXqX3XDX:XBXvX<XDX2XMXgXP Q.* LXLXLXLXLXLXLXLXLXLXLXLXLXLXLXLXLXLXLXLXLXLX",
"LXLXLXLXLXLXLXLXLXLXLXLXLXLXLXLXLXLXLXLXLXLXLX- n r ;XCXqX3XDX:XBXvX<XHXm.c.x.8 N X LXLXLXLXLXLXLXLXLXLXLXLXLXLXLXLXLXLXLXLXLXLX",
"LXLXLXLXLXLXLXLXLXLXLXLXLXLXLXLXLXLXLXLXLXLXLXV ^.:.-XCXqX3XDX:XBXvX<XGX5.G F ` /.* LXLXLXLXLXLXLXLXLXLXLXLXLXLXLXLXLXLXLXLXLXLX",
"LXLXLXLXLXLXLXLXLXLXLXLXLXLXLXLXLXLXLXLXLXLXLXC ).>.-XCXqX3XDX:XBXvX<XJXu.7.g T _.= LXLXLXLXLXLXLXLXLXLXLXLXLXLXLXLXLXLXLXLXLXLX",
"LXLXLXLXLXLXLXLXLXLXLXLXLXLXLXLXLXLXLXLXLXLXLX; B t -XCXqX3XDX:XBXvX<XFX<XzXuX0 B o LXLXLXLXLXLXLXLXLXLXLXLXLXLXLXLXLXLXLXLXLXLX",
"LXLXLXLXLXLXLXLXLXLXLXLXLXLXLXLXLXLXLXLXLXLXLXz W.-.-XCXqX3XDX:XBXvX<XDX<XcXiXJ R.& LXLXLXLXLXLXLXLXLXLXLXLXLXLXLXLXLXLXLXLXLXLX",
"LXLXLXLXLXLXLXLXLXLXLXLXLXLXLXLXLXLXLXLXLXLXLXZ {.<.>XAXrX7XJX,XVXNX1XKX4XnXsXR [.= LXLXLXLXLXLXLXLXLXLXLXLXLXLXLXLXLXLXLXLXLXLX",
"LXLXLXLXLXLXLXLXLXLXLXLXLXLXLXLXLXLXLXLXLXLXLX, ! 6 #.e.3.&.p.$.w.q.$.p.%.q.2.> Q O LXLXLXLXLXLXLXLXLXLXLXLXLXLXLXLXLXLXLXLXLXLX",
"LXLXLXLXLXLXLXLXLXLXLXLXLXLXLXLXLXLXLXLXLXLXLXLXLXLXLXLXLXLXLXLXLXLXLXLXLXLXLXLXLXLXLXLXLXLXLXLXLXLXLXLXLXLXLXLXLXLXLXLXLXLXLXLX",
"LXLXLXLXLXLXLXLXLXLXLXLXLXLXLXLXLXLXLXLXLXLXLXLXLXLXLXLXLXLXLXLXLXLXLXLXLXLXLXLXLXLXLXLXLXLXLXLXLXLXLXLXLXLXLXLXLXLXLXLXLXLXLXLX",
"LXLXLXLXLXLXLXLXLXLXLXLXLXLXLXLXLXLXLXLXLXLXLXLXLXLXLXLXLXLXLXLXLXLXLXLXLXLXLXLXLXLXLXLXLXLXLXLXLXLXLXLXLXLXLXLXLXLXLXLXLXLXLXLX",
"LXLXLXLXLXLXLXLXLXLXLXLXLXLXLXLXLXLXLXLXLXLXLXLXLXLXLXLXLXLXLXLXLXLXLXLXLXLXLXLXLXLXLXLXLXLXLXLXLXLXLXLXLXLXLXLXLXLXLXLXLXLXLXLX",
"LXLXLXLXLXLXLXLXLXLXLXLXLXLXLXLXLXLXLXLXLXLXLXLXLXLXLXLXLXLXLXLXLXLXLXLXLXLXLXLXLXLXLXLXLXLXLXLXLXLXLXLXLXLXLXLXLXLXLXLXLXLXLXLX",
"LXLXLXLXLXLXLXLXLXLXLXLXLXLXLXLXLXLXLXLXLXLXLXLXLXLXLXLXLXLXLXLXLXLXLXLXLXLXLXLXLXLXLXLXLXLXLXLXLXLXLXLXLXLXLXLXLXLXLXLXLXLXLXLX",
"LXLXLXLXLXLXLXLXLXLXLXLXLXLXLXLXLXLXLXLXLXLXLXLXLXLXLXLXLXLXLXLXLXLXLXLXLXLXLXLXLXLXLXLXLXLXLXLXLXLXLXLXLXLXLXLXLXLXLXLXLXLXLXLX",
"LXLXLXLXLXLXLXLXLXLXLXLXLXLXLXLXLXLXLXLXLXLXLXLXLXLXLXLXLXLXLXLXLXLXLXLXLXLXLXLXLXLXLXLXLXLXLXLXLXLXLXLXLXLXLXLXLXLXLXLXLXLXLXLX",
"LXLXLXLXLXLXLXLXLXLXLXLXLXLXLXLXLXLXLXLXLXLXLXLXLXLXLXLXLXLXLXLXLXLXLXLXLXLXLXLXLXLXLXLXLXLXLXLXLXLXLXLXLXLXLXLXLXLXLXLXLXLXLXLX",
"LXLXLXLXLXLXLXLXLXLXLXLXLXLXLXLXLXLXLXLXLXLXLXLXLXLXLXLXLXLXLXLXLXLXLXLXLXLXLXLXLXLXLXLXLXLXLXLXLXLXLXLXLXLXLXLXLXLXLXLXLXLXLXLX",
"LXLXLXLXLXLXLXLXLXLXLXLXLXLXLXLXLXLXLXLXLXLXLXLXLXLXLXLXLXLXLXLXLXLXLXLXLXLXLXLXLXLXLXLXLXLXLXLXLXLXLXLXLXLXLXLXLXLXLXLXLXLXLXLX",
"LXLXLXLXLXLXLXLXLXLXLXLXLXLXLXLXLXLXLXLXLXLXLXLXLXLXLXLXLXLXLXLXLXLXLXLXLXLXLXLXLXLXLXLXLXLXLXLXLXLXLXLXLXLXLXLXLXLXLXLXLXLXLXLX",
"LXLXLXLXLXLXLXLXLXLXLXLXLXLXLXLXLXLXLXLXLXLXLXLXLXLXLXLXLXLXLXLXLXLXLXLXLXLXLXLXLXLXLXLXLXLXLXLXLXLXLXLXLXLXLXLXLXLXLXLXLXLXLXLX",
"LXLXLXLXLXLXLXLXLXLXLXLXLXLXLXLXLXLXLXLXLXLXLXLXLXLXLXLXLXLXLXLXLXLXLXLXLXLXLXLXLXLXLXLXLXLXLXLXLXLXLXLXLXLXLXLXLXLXLXLXLXLXLXLX",
"LXLXLXLXLXLXLXLXLXLXLXLXLXLXLXLXLXLXLXLXLXLXLXLXLXLXLXLXLXLXLXLXLXLXLXLXLXLXLXLXLXLXLXLXLXLXLXLXLXLXLXLXLXLXLXLXLXLXLXLXLXLXLXLX",
"LXLXLXLXLXLXLXLXLXLXLXLXLXLXLXLXLXLXLXLXLXLXLXLXLXLXLXLXLXLXLXLXLXLXLXLXLXLXLXLXLXLXLXLXLXLXLXLXLXLXLXLXLXLXLXLXLXLXLXLXLXLXLXLX",
"LXLXLXLXLXLXLXLXLXLXLXLXLXLXLXLXLXLXLXLXLXLXLXLXLXLXLXLXLXLXLXLXLXLXLXLXLXLXLXLXLXLXLXLXLXLXLXLXLXLXLXLXLXLXLXLXLXLXLXLXLXLXLXLX",
"LXLXLXLXLXLXLXLXLXLXLXLXLXLXLXLXLXLXLXLXLXLXLXLXLXLXLXLXLXLXLXLXLXLXLXLXLXLXLXLXLXLXLXLXLXLXLXLXLXLXLXLXLXLXLXLXLXLXLXLXLXLXLXLX",
"LXLXLXLXLXLXLXLXLXLXLXLXLXLXLXLXLXLXLXLXLXLXLXLXLXLXLXLXLXLXLXLXLXLXLXLXLXLXLXLXLXLXLXLXLXLXLXLXLXLXLXLXLXLXLXLXLXLXLXLXLXLXLXLX",
"LXLXLXLXLXLXLXLXLXLXLXLXLXLXLXLXLXLXLXLXLXLXLXLXLXLXLXLXLXLXLXLXLXLXLXLXLXLXLXLXLXLXLXLXLXLXLXLXLXLXLXLXLXLXLXLXLXLXLXLXLXLXLXLX"
};
