/* XPM */
static char *result[] = {
/* columns rows colors chars-per-pixel */
"64 64 92 1 ",
"  c #160B0B",
". c #1D0C0E",
"X c #14110F",
"o c #1D0E10",
"O c #141415",
"+ c #1C1415",
"@ c #171A16",
"# c #1A1917",
"$ c #151719",
"% c #1B1619",
"& c #161A1C",
"* c #1B1B1D",
"= c #240A0C",
"- c #2B0A0D",
"; c #330A0E",
": c #3B090E",
"> c #240E11",
", c #2C0E11",
"< c #330E12",
"1 c #3B0D12",
"2 c #241315",
"3 c #2B1215",
"4 c #241917",
"5 c #241619",
"6 c #2B161A",
"7 c #231B1D",
"8 c #2B1A1D",
"9 c #341215",
"0 c #3C1216",
"q c #33151A",
"w c #3C151A",
"e c #331A1D",
"r c #3B1A1E",
"t c #1D201E",
"y c #23211E",
"u c #29211E",
"i c #33211F",
"p c #1B1E21",
"a c #231E21",
"s c #2B1D22",
"d c #331D22",
"f c #3B1D22",
"g c #1D2225",
"h c #1F2429",
"j c #232324",
"k c #2B2424",
"l c #242926",
"z c #2C2A25",
"x c #22252A",
"c c #2A2529",
"v c #242A2B",
"b c #2B2B2A",
"n c #332224",
"m c #3B2223",
"M c #332926",
"N c #3A2926",
"B c #332429",
"V c #332D2A",
"C c #3A2D2B",
"Z c #26302C",
"A c #2B322D",
"S c #34312C",
"D c #3C322B",
"F c #2B2C30",
"G c #312E32",
"H c #3C2D30",
"J c #2A3332",
"K c #2E3B33",
"L c #333432",
"P c #3B3333",
"I c #333C36",
"U c #41090F",
"Y c #420E13",
"T c #4D0C13",
"R c #411116",
"E c #4C1017",
"W c #44141B",
"Q c #4C131A",
"! c #43191E",
"~ c #48181C",
"^ c #531017",
"/ c #52121A",
"( c #431A20",
") c #481820",
"_ c #412222",
"` c #412827",
"' c #453735",
"] c #314036",
"[ c #35453C",
"{ c #3E5048",
"} c #424E4A",
"| c None",
/* pixels */
"||||||||||||||||||||||||||||||||||||||||||||||||||||||||||||||||",
"||||||||||||||||||||||||||||||||||||||||||||||||||||||||||||||||",
"||||||||||||||||||||||||||||||||||||||||||||||||||||||||||||||||",
"||||||||||||||||||||||||||||||||||||||||||||||||||||||||||||||||",
"||||||||||||||||||||||||||||||||||||||||||||||||||||||||||||||||",
"||||||=:==;;1<m39qd6sbkxh7*&#&O$phxpggxjgaj8888qeerrw00EER1|||||",
"||||||-;==;:1<0<0qq8sVcJvj8&*pp*hhxxpppxgkMcseddrfq3wREE^ER|||||",
"||||||-;;==:;-119qqqsa%pp*##&phuhpha&p*%jiesd86dqrr3990109-|||||",
"||||||=;:U:U;=;:1qqfdss%$*j#pgj8hhhppa*4*78ed653q,qR9,3<;:;|||||",
"||||||;UUU::==;U1qfq65a*%a*e7h75pppppg57u*68678dfrrrw90YY0-|||||",
"||||||;UU:;==-:YR19fd75%%448kvppppaapp#*7*487dnfffrqwWE/^0.|||||",
"||||||-;:;.-;--1R<<qdss***8*gKj&pppp*&gyp*6qsddfqrrw0W//^U=|||||",
"||||||,<;;;1<9<<w>3q6scx**ap*lj*%$O*p$*j*39998eqqrer90EE/EY|||||",
"||||||1111<1<3,wqoo668aapap*pgp*%%O$7%455230986efr89930Q//E|||||",
"||||||<<<<<,,>qf6>o36sapgp**&&ppp%,274623636868frme6q33WQ/W|||||",
"||||||>>>>>>,qd853>57sapgp&**$&gpa<,6865266q6+5errr26dqwWr9|||||",
"||||||.>>o>>q68+>6557aahgg&gg&*&p5,-8856>3866a76qffq8e99ii2|||||",
"||||||3qq>+6d86o55282axpg*gggt*$pa56p#%56566as776fqee3eq4M6|||||",
"||||||6qqs8dds676557+%xhgt&&&gg&&ggajp&688s7ss768qf548356n8|||||",
"||||||+6sdBs8s8sa7+%77pxgg&$$gg*ggjaja*5%aaasa%8iiemi4225n6|||||",
"||||||+776ss78asay5paapxgg&&$&g&xjjjlaa4*jasa557ed8f_ie8%ds|||||",
"||||||+**5a75kaaanaaahppg&&&&g&gjj7jjlx*aaafaaxbzu8dnmensns|||||",
"||||||%***a**ppjjaxappp*&gg&&$&gttyytjv*luapjv{bjkks8Mnsss7|||||",
"||||||%*u*p*#s7pappppppp&gggg&g$tggyO*j#uu8_jvIj4jkekjssaky|||||",
"||||||%*%&lgjz8*ppagl*u*@**gt&tthhtlyytX#ku_kjpA[jkNka*787*|||||",
"||||||****@gpg*pp78jj$&*p4$$@tghlhtzlluukjhvxgpxJjMVka**ajj|||||",
"||||||&&**&O$$&&p*ut&$$gt&pgthhllt@t]lttghxbbp*hhb`kpgtjkjp|||||",
"||||||&p*$$O$&&$O*&&##@&@ggghZZZltth]ZtthZvvlpghxvvgpghblgp|||||",
"||||||&p&ppp$p&$&p**&#*ttgyyvZZZttthtlytvvhvhxhhhvShghxhgpp|||||",
"||||||&O$&pppp&&&*gt#&$&ttutglZZltttlzylvJZhg*ghxxvhgghhppp|||||",
"||||||p2o+%pph&h&7ggpppgggg4ulZhtulttlllvvhg7gghhxvjappggxg|||||",
"||||||p52=7ppp&&&tg*pp&*@gt4uytttZ]]lhuSlhhjt*gjSZ[bn%phvxh|||||",
"||||||gga*ggg&p&&&jyjtt*tyttyAzuth]]ZglMSlgjggghyZZln+*hhbl|||||",
"||||||p*p*&*gg&&Opg525t*t4uZZZAZygvlMlZvhxgjjhxxhh**jxjhhvl|||||",
"||||||jl4$p*tvxppgg5--atguiughZttgguVvhZvx74898uhh*thxzxgyy|||||",
"||||||jl4phgt*phhghjj7h*gththhhhhhguglbkx8~Q0ru3*gggjBCvhgg|||||",
"||||||hlujhhppppggghhhggggggxhhhxhhjlljuqTE/T0zkk*p7nklAJgg|||||",
"||||||*lkjjgxppp&*gggg*lggghhhghhhvhjgghar1TYTY5zbgjvMgJJbu|||||",
"||||||&*zjp7ap*&O@t&*Oyjgpghhhhhhhhxggghhh*>5YTo%uugxxjjgj8|||||",
"||||||#jj655%*%&$OOOO@lg**phhggp6jhhhapgxx**p6T7$Ojgj7u7tt4|||||",
"||||||*ls<<5p%&4t*%XXpjg*ugghgjs96xxxaphhp*pxsTsp*xxjxk%#y7|||||",
"||||||*jas6s7a7aujj*&pjj##7hhjfn39cxxapxca*hxaRaaajjxaBc5**|||||",
"||||||%ssss76a7aAgyaagg4&&jljxxCaccvcapxzkgxxkwgxxcjjFGVf7%|||||",
"||||||asssaa%%5al7aap*j7uzlkNVvSvxxxaxvIzsxhg98gavxBzbFBn8X|||||",
"||||||88ssds%*%7ksaj%%phyuylbxgJjxxackcFxcajk8gypxcccsaacs+|||||",
"||||||sfdsdsa5*jjaja%58vltklvhpvgphxcncxjxxkilgkapFvxca5j55|||||",
"||||||qdddfcsapaaaa844lIbDDVzvhhhp&gvcxcdxjMMvjgcpxxjaaassd|||||",
"||||||68ssddcajsjjaf6*gjjkvvvxhhh&$&xcpxajacjp*ghpsBccaa%fd|||||",
"||||||25e44sc7kkkM%8jkcjhhvZvhhvhpa%jcxxjjxxxxp*paacFBBssd6|||||",
"||||||38n8+u8##u7kjLbzbljhhhhhvhhxMy&*jkNaxxgvjyckaxsBBfs65|||||",
"||||||qd8+4n848uzckLk4yggjgggghxvV*#&&&pjjajcnPba5ad88dq6dq|||||",
"||||||wde+4888e8sasxs*&*akhhggggxFapp*&pxxxa8Mcs*%kd6s8rffq|||||",
"||||||rw!323dfffscBVj*pk`mjgpxhgcFFhgpapgppp5as855ssdffff)r|||||",
"||||||w0ww3r()ffBPBJck*VNjxgkMhzVbxhhajgpa+%76s6754dddr(QQW|||||",
"||||||w0Y1R0W~w!fdF}Gcakcljglkgvxxvxajpjaia*7dqd8586w9w~WQR|||||",
"||||||<<1E1099!!)(nPPCsBnjgvxjpZbxacxjgpa8*56ddddssmrw0w0R1|||||",
"||||||-00T<009W~!(fn''ksczxggtO$jkcBvAvjme*%4ddffcdr!wRR,,-|||||",
"||||||=:=<--<;19wq8ss7a5a*&&$OOO%ppp*g**52% +566555999<<>  |||||",
"||||||||||||||||||||||||||||||||||||||||||||||||||||||||||||||||",
"||||||||||||||||||||||||||||||||||||||||||||||||||||||||||||||||",
"||||||||||||||||||||||||||||||||||||||||||||||||||||||||||||||||",
"||||||||||||||||||||||||||||||||||||||||||||||||||||||||||||||||",
"||||||||||||||||||||||||||||||||||||||||||||||||||||||||||||||||",
"||||||||||||||||||||||||||||||||||||||||||||||||||||||||||||||||"
};
